<svg font-family="sans-serif" text-anchor="middle" version="1.1" viewBox="0 0 132 67" xmlns="http://www.w3.org/2000/svg">
<g fill="#0de">
<path d="m30.1 5.34c-.861-.0213-1.6.751-1.61 1.6-.5 2.78-1 5.56-1.5 8.33 3.04.611 6.08 1.24 9.13 1.84 1.11.133 2.05-1.2 1.55-2.21-.285-.75-1.12-.964-1.83-1.05-1.11-.224-2.21-.448-3.32-.672 1.38-.508 2.6-1.38 3.65-2.39.638-.823.168-2.19-.853-2.44-.721-.24-1.39.205-1.96.582-.827.516-1.62 1.11-2.27 1.84.188-1.33.442-2.65.587-3.99-.026-.808-.787-1.48-1.58-1.46z"/>
<path d="m1.56 25.5c-1.07-.0641-1.88 1.2-1.43 2.16.284.816 1.18 1.02 1.94 1.12 1.08.218 2.15.436 3.23.654-1.38.508-2.6 1.38-3.65 2.39-.634.823-.151 2.18.858 2.43.716.248 1.38-.199 1.95-.576.826-.518 1.61-1.11 2.27-1.84-.19 1.31-.429 2.62-.586 3.94.0193 1.17 1.56 1.91 2.51 1.22.69-.459.657-1.35.816-2.07.455-2.53.909-5.06 1.36-7.58-3.02-.607-6.03-1.23-9.04-1.83-.0549-.0446-.166.057-.219.0037z"/>
<path d="m19-.0178c-.917-.031-1.68.862-1.59 1.76-.0937 1.14-.102 2.31.163 3.43-.959-.907-1.88-1.85-2.86-2.73-.86-.59-2.23-.0853-2.42.968-.23.886.481 1.56 1.07 2.1 1.84 1.87 3.68 3.74 5.51 5.61 2.27-2.16 4.58-4.29 6.82-6.47.69-.904-.000561-2.41-1.14-2.47-.805-.103-1.38.536-1.9 1.05-.774.73-1.55 1.46-2.32 2.19.375-1.43.386-2.94.142-4.39-.217-.6-.847-1.04-1.48-1.03z"/>
<path d="m19.4 31.2c-2.27 2.16-4.58 4.29-6.82 6.47-.681.868-.066 2.3 1.02 2.46.816.198 1.45-.43 1.96-.965.797-.751 1.59-1.5 2.39-2.25-.377 1.41-.377 2.91-.167 4.35.315 1.04 1.79 1.38 2.56.629.669-.569.534-1.51.598-2.29.023-.831-.0269-1.67-.217-2.48.98.922 1.91 1.9 2.93 2.78.896.591 2.25-.0721 2.35-1.14.171-.848-.517-1.46-1.07-1.98-1.84-1.86-3.69-3.72-5.53-5.59z"/>
<path d="m7.7 5.57-.00586.00781c-.976-.0394-1.84.969-1.57 1.93.225 1.32.452 2.63.676 3.95-.927-1.07-2.15-1.85-3.39-2.5-.942-.382-2.07.394-2.1 1.4-.0646.611.286 1.19.797 1.5.909.722 1.89 1.38 2.98 1.78-1.28.293-2.57.549-3.85.865-.962.347-1.27 1.7-.605 2.46.397.518 1.11.707 1.72.516 2.8-.543 5.61-1.09 8.41-1.63-.524-3.06-1.03-6.11-1.57-9.17-.17-.656-.828-1.11-1.49-1.11z"/>
</g>
<path fill="#0ab" d="m23 22.1c-.513.839-1.03 1.68-1.54 2.52 2.08 1.4 4.16 2.79 6.25 4.17.406 2.32.761 4.65 1.2 6.97.367 1.12 2.07 1.32 2.73.361.597-.775.136-1.77.0468-2.63-.129-.762-.259-1.52-.388-2.29 1.13.728 2.21 1.55 3.38 2.22 1.11.404 2.37-.783 2.02-1.92-.273-.908-1.27-1.22-1.96-1.75-.54-.354-1.08-.709-1.62-1.06 1.29-.311 2.61-.51 3.87-.9 1.12-.557 1-2.41-.162-2.85-.853-.302-1.73.136-2.58.23-1.67.32-3.33.641-5 .961-2.07-1.35-4.15-2.7-6.22-4.05z"/>
<circle cx="19.2" cy="21.3" r="10.7" fill="none" stroke="#0ab" stroke-width="3"/>
<text x="86" y="32" fill="#0ab" font-size="32px" font-weight="bold" stroke="#0ef">Quid</text>
<text x="66" y="53" fill="#777" font-size="12px">Authentication Server</text>
<text x="66" y="64" fill="#777" font-size="12px">Refresh Access JWT</text>
</svg>
