<svg fill="#0de" version="1.1" viewBox="0 0 37.8 42.3" xmlns="http://www.w3.org/2000/svg">
<path d="m30.1 5.36c-.86-.02-1.6.75-1.6 1.6-.5 2.78-1 5.56-1.5 8.33 3 .61 6.1 1.24 9.13 1.84 1.1.13 2.05-1.2 1.55-2.21-.285-.75-1.12-.964-1.83-1.05-1.1-.224-2.21-.45-3.32-.67 1.38-.51 2.6-1.38 3.65-2.39.64-.82.17-2.19-.85-2.44-.72-.24-1.39.2-1.96.58-.83.516-1.62 1.11-2.27 1.84.19-1.33.44-2.65.59-4 -.026-.81-.79-1.48-1.58-1.46z"/>
<path d="m1.56 25.5c-1.07-.064-1.88 1.2-1.43 2.16.284.816 1.18 1.02 1.94 1.12 1.08.22 2.15.436 3.23.654-1.38.51-2.6 1.38-3.65 2.39-.634.82-.151 2.18.86 2.43.716.25 1.38-.2 1.95-.576.826-.52 1.61-1.11 2.27-1.84-.19 1.31-.43 2.62-.57 3.94.02 1.17 1.56 1.91 2.51 1.22.69-.46.66-1.35.816-2.07.455-2.53.91-5.06 1.36-7.58-3.02-.61-6.03-1.23-9.04-1.83-.055-.045-.166.06-.22 0z"/>
<path d="m19 .0c-.92-.031-1.68.86-1.59 1.76-.094 1.14-.1 2.31.163 3.43-.96-.91-1.88-1.85-2.86-2.73-.86-.59-2.23-.085-2.42.97-.23.886.481 1.56 1.07 2.1 1.84 1.87 3.68 3.74 5.51 5.61 2.27-2.16 4.58-4.29 6.82-6.47.69-.9 0-2.41-1.14-2.47-.8-.1-1.38.536-1.9 1 -.774.73-1.55 1.46-2.32 2.19.375-1.43.386-2.94.14-4.39-.22-.6-.85-1.04-1.48-1.03z"/>
<path d="m19.4 31.2c-2.27 2.16-4.58 4.29-6.82 6.47-.68.87-.066 2.3 1.02 2.46.816.2 1.45-.43 1.96-.965.8-.75 1.59-1.5 2.39-2.25-.38 1.41-.38 2.91-.17 4.35.315 1.04 1.79 1.38 2.56.63.67-.57.534-1.51.6-2.29.02-.83-.03-1.67-.22-2.48.98.92 1.91 1.9 2.93 2.78.9.59 2.25-.072 2.35-1.14.171-.85-.52-1.46-1.07-1.98-1.84-1.86-3.69-3.72-5.53-5.59z"/>
<path d="m7.7 5.59 0 0c-1-.04-1.84.97-1.57 1.93.225 1.32.45 2.63.676 3.95-.93-1.07-2.15-1.85-3.39-2.5-.94-.38-2.07.394-2.1 1.4-.065.61.286 1.19.8 1.5.91.72 1.89 1.38 2.98 1.78-1.28.29-2.57.55-3.85.865-.96.35-1.27 1.7-.6 2.46.4.52 1.11.71 1.72.516 2.8-.54 5.61-1.1 8.41-1.63-.524-3.06-1.03-6.11-1.57-9.17-.17-.656-.83-1.11-1.49-1.11z"/>
<path fill="#0ab" d="m23 22.1c-.51.84-1 1.68-1.54 2.52 2.1 1.4 4.16 2.79 6.25 4.17.41 2.32.76 4.65 1.2 6.97.37 1.12 2.07 1.32 2.73.36.6-.775.136-1.77.05-2.63-.13-.76-.26-1.52-.39-2.29 1.13.73 2.21 1.55 3.38 2.22 1.11.4 2.37-.78 2 -1.92-.27-.91-1.27-1.22-1.96-1.75-.54-.354-1.1-.71-1.62-1.06 1.29-.31 2.61-.51 3.87-.9 1.12-.56 1-2.41-.16-2.85-.85-.3-1.73.136-2.58.23-1.67.32-3.33.64-5 .96-2.07-1.35-4.15-2.7-6.22-4z"/>
<circle fill="none" stroke="#0ab" stroke-width="3" cx="19.2" cy="21.3" r="10.7"/>
</svg>
