<svg width="132" height="67" version="1.1" viewBox="0 0 132 67" xmlns="http://www.w3.org/2000/svg" text-anchor="middle" font-family="sans-serif">
 <g transform="matrix(.731 1.03 -1.03 .731 4.1373 -39.696)"></g>
 <g transform="matrix(1.26 0 0 1.26 -38.734 -.76262)"></g>
 <g transform="translate(-70.006 .16992)">
  <g fill="#0de">
   <g transform="matrix(.731 1.03 -1.03 .731 72.863 -39.866)">
    <g transform="rotate(-45.3,62.3,-38.1)">
     <path transform="matrix(.78125 -.12844 .12844 .78125 -60.407 -15.079)" d="m100.2 5.168c-.73841.00374-1.4192.5354-1.541 1.2461l-1.5625 8.6855 8.9766 1.8164c.80601.16985 1.623-.41805 1.7969-1.2441.17429-.8267-.36694-1.6748-1.1738-1.8438l-4.0762-.82617c.90119-.30806 2.0329-.9606 3.3145-2.0625.67609-.47125.83126-1.454.34765-2.1465-.48264-.69407-1.4918-.89431-2.168-.42188-1.3577.76801-2.3146 1.5409-2.9199 2.2363l.56641-3.6797c.14001-.81231-.44858-1.5938-1.2812-1.7363-.091-.015534-.18315-.022195-.27539-.021484z"/>
    </g>
   </g>
   <g transform="matrix(-.731 -1.03 1.03 -.731 105.09 82.007)">
    <g transform="translate(-.0543 -.0417)">
     <g transform="rotate(-45.3,62.3,-38.1)">
      <path transform="matrix(-.78125 .12844 -.12844 -.78125 84.037 -4.9448)" d="m71.547 25.283c-.72114-.01611-1.3563.49776-1.5078 1.2207-.17429.8267.35718 1.71 1.1641 1.8789l4.0781.82617c-.90119.30807-2.0348.9606-3.3164 2.0625-.67609.47125-.8215 1.4404-.33789 2.1328.48264.69407 1.484.90798 2.1602.43555 1.3604-.76801 2.3126-1.5429 2.918-2.2383l-.56641 3.6816c-.14002.81231.50326 1.5762 1.3359 1.7188.83231.1445 1.6217-.39671 1.7617-1.209l1.5625-8.6855c-2.9899-.60632-5.9793-1.2156-8.9688-1.8242-.08799-.01839-.19325.0038-.2832.002z"/>
     </g>
    </g>
   </g>
   <g transform="matrix(1.26 0 0 1.26 29.992 -.93254)">
    <g transform="rotate(-45.3,62.3,-38.1)">
     <path transform="matrix(.55825 .56413 -.56413 .55825 -25.872 -71.982)" d="m88.939-.16992c-.84108-.001598-1.5643.68447-1.5684 1.5059-.15587 1.5509-.07582 2.7804.14258 3.6797l-2.6777-2.5859c-.27947-.27982-.71482-.40533-1.1152-.40039-.3996.00512-.78615.16916-1.0723.45508-.59802.59649-.60296 1.6054-.01953 2.1875l6.1777 6.2871 6.6562-6.2852c.6028-.56017.58589-1.5522.011716-2.1699-.29688-.31939-.71256-.49838-1.1426-.49414h-.0039c-.36726.00465-.75734.12792-1.0234.375l-3.0391 2.8633c.2682-.91342.38886-2.2159.23438-3.8906.0056-.82177-.71888-1.5197-1.5605-1.5273z"/>
    </g>
   </g>
   <g transform="matrix(-1.26 0 0 -1.26 147.74 43.22)">
    <g transform="translate(-.0543 -.0417)">
     <g transform="rotate(-45.3,62.3,-38.1)">
      <path transform="matrix(-.55825 -.56413 .56413 -.55825 49.502 51.958)" d="m89.365 31.021-6.6562 6.2832c-.6028.56017-.59956 1.5366-.02539 2.1543.57377.61777 1.5827.69648 2.1855.13672l3.0391-2.8633c-.2682.91342-.38834 2.2133-.23438 3.8906-.0056.8237.69097 1.4975 1.5352 1.502.84444.0059 1.6092-.68385 1.6133-1.5078.15586-1.5536.07582-2.7784-.14258-3.6777l2.6777 2.584c.5822.58312 1.5579.55686 2.1543-.04102.59627-.59616.63635-1.6174.05469-2.1992z"/>
     </g>
    </g>
   </g>
   <path d="m77.695 5.4082c-.09221-.0009671-.18438.00622-.27539.021484-.83379.13562-1.4589.93651-1.3262 1.75l.70117 4.1074c-.61215-.7314-1.6297-1.5531-3.127-2.3613-.68226-.44831-1.6289-.22232-2.0977.4707-.47408.70159-.33088 1.6963.35547 2.1562 1.2084.9911 2.2725 1.6046 3.1523 1.9199l-3.6289.80274c-.80723.16301-1.3187 1.0065-1.1523 1.834.16548.82858.98853 1.418 1.7969 1.2559l8.6641-1.6777c-.51282-3.0119-1.0271-6.0235-1.541-9.0352-.1154-.71187-.78108-1.2333-1.5195-1.2441z"/>
  </g>
  <g fill="#0ab" transform="matrix(-.697 1.05 -1.05 -.697 139.96 -15.88)">
   <g transform="translate(-.0543 -.0417)">
    <g transform="rotate(-45.3,62.3,-38.1)">
     <path transform="matrix(.16122 -.77692 .77692 .16122 -18.822 55.783)" d="m92.949 21.914-1.543 2.5195 6.248 4.1797.1582.93359.97656 5.7812c.13051.81033.9371 1.3545 1.7676 1.2207.83116-.13376 1.4538-.93331 1.3223-1.7441l-.64063-3.7754 3.0586 2.0488c.68025.46092 1.642.23115 2.1133-.4668.47076-.69708.30519-1.6891-.375-2.1484l-2.9785-1.9473 3.4844-.76367c.80504-.16073 1.3153-.99334 1.1504-1.8184-.16401-.82566-.98167-1.4227-1.7871-1.2617l-6.7324 1.293z"/>
    </g>
   </g>
  </g>
  <circle fill="none" stroke="#0ab" stroke-width="3" cx="89.16" cy="21.12" r="10.7"/>
 </g>
 <text font-size="32px" x="86" y="32" fill="#0ab" stroke="#0ef" font-weight="bold">Quid</text>
 <text font-size="12px" x="66" y="53" fill="#777">Authentication Server</text>
 <text font-size="12px" x="66" y="64" fill="#777">Refresh Access JWT</text>
</svg>
